<svg width="512" height="512" viewBox="0 0 512 512" fill="none" xmlns="http://www.w3.org/2000/svg">
<path d="M172 26.6C77 32.6 33.5 75.2 27 168.5C25.7 186.7 25.7 325.3 27 343.5C32.5 422.7 65.3 465.6 131.1 479.9C155.4 485.1 158.1 485.3 244 485.7C328.4 486.2 349 485.6 369.6 482.1C426.3 472.3 459 446.2 475 398.1C479.3 385.1 481.1 377.1 483.7 359C485.3 347.7 485.5 337.7 485.5 256C485.5 174.3 485.3 164.3 483.7 153C481.1 134.9 479.3 126.9 475 113.9C458 62.7 422.3 36.6 357 27.9C349.1 26.8 186.5 25.7 172 26.6ZM343.6 60C416.7 65.9 446.4 95.7 452 169C453.3 186.6 453.3 325.4 452 343C450.1 368 446.1 385.2 438.5 400.7C422.9 432.6 394.5 447.9 343.6 452C326.7 453.3 185.3 453.3 168.4 452C95.3 446.1 65.6 416.2 60 343C58.7 325.4 58.7 186.6 60 169C65.5 96.5 95.5 65.9 166.5 60.1C181.5 58.9 328.5 58.8 343.6 60Z" fill="url(#paint0_linear_2106_98)"/>
<path d="M192.5 142.9C190.1 144 181 152.4 170 163.4L151.6 182L148 178.5C142 172.7 135.8 171.5 128.4 174.9C122.7 177.5 119.7 182.6 119.8 189.6C119.8 196.5 121.5 199.2 132.8 210.2C144.2 221.4 149.9 223.9 157.7 221C160.9 219.8 212.4 168.9 214.6 164.8C215.4 163.3 216 159.9 216 157.2C216 145.2 203.4 137.6 192.5 142.9Z" fill="url(#paint1_linear_2106_98)"/>
<path d="M256.2 174.7C249.4 178 246.1 185.8 248.1 193.2C249.4 198.4 255.4 204.4 260 205.4C261.8 205.7 289.2 206 320.9 206H378.6L383 203.7C389.7 200.4 392.3 195.9 391.8 188.5C391.4 182.2 389.8 179.1 385.1 175.4C382.6 173.6 380.2 173.5 321 173.3C265.8 173 259.2 173.2 256.2 174.7Z" fill="url(#paint2_linear_2106_98)"/>
<path d="M195.1 291C192.5 291.6 186.9 296.6 171.9 311.6L152.1 331.4L148.1 327.7C140.6 321 131 320.7 124.4 327.1C121.3 330.1 118.6 337.4 119.5 340.4C119.7 341 120.1 342.8 120.5 344.5C121.3 348.1 140.1 367.6 144.7 369.6C148.9 371.4 155.4 371.4 159.4 369.5C163.6 367.5 213.6 317.3 214.9 313.7C215.5 312.1 216 308.7 216 306.1C216 295.7 205.9 288.3 195.1 291Z" fill="url(#paint3_linear_2106_98)"/>
<path d="M258 323.1C253.9 324.7 249 330.2 247.9 334.3C246 341.5 249.2 349.1 255.9 352.8L259.9 355L320.9 354.8C381 354.5 381.9 354.5 384.7 352.4C394.6 345 394.6 332 384.7 324.6C381.9 322.5 381 322.5 321.2 322.3C282.4 322.2 259.6 322.5 258 323.1Z" fill="url(#paint4_linear_2106_98)"/>
<defs>
<linearGradient id="paint0_linear_2106_98" x1="444.75" y1="453.75" x2="88.5" y2="68.6249" gradientUnits="userSpaceOnUse">
<stop stop-color="#4EA8DE"/>
<stop offset="1" stop-color="#5E60CE"/>
</linearGradient>
<linearGradient id="paint1_linear_2106_98" x1="207.468" y1="216.458" x2="146.479" y2="138.062" gradientUnits="userSpaceOnUse">
<stop stop-color="#4EA8DE"/>
<stop offset="1" stop-color="#5E60CE"/>
</linearGradient>
<linearGradient id="paint2_linear_2106_98" x1="379.059" y1="203.707" x2="368.782" y2="154.835" gradientUnits="userSpaceOnUse">
<stop stop-color="#4EA8DE"/>
<stop offset="1" stop-color="#5E60CE"/>
</linearGradient>
<linearGradient id="paint3_linear_2106_98" x1="207.426" y1="365.315" x2="146.916" y2="286.735" gradientUnits="userSpaceOnUse">
<stop stop-color="#4EA8DE"/>
<stop offset="1" stop-color="#5E60CE"/>
</linearGradient>
<linearGradient id="paint4_linear_2106_98" x1="379.286" y1="352.714" x2="369.097" y2="303.966" gradientUnits="userSpaceOnUse">
<stop stop-color="#4EA8DE"/>
<stop offset="1" stop-color="#5E60CE"/>
</linearGradient>
</defs>
</svg>
