<svg width="256" height="256" viewBox="0 0 256 256" fill="none" xmlns="http://www.w3.org/2000/svg">
<path d="M86 13.3C38.5 16.3 16.75 37.6 13.5 84.25C12.85 93.35 12.85 162.65 13.5 171.75C16.25 211.35 32.65 232.8 65.55 239.95C77.7 242.55 79.05 242.65 122 242.85C164.2 243.1 174.5 242.8 184.8 241.05C213.15 236.15 229.5 223.1 237.5 199.05C239.65 192.55 240.55 188.55 241.85 179.5C242.65 173.85 242.75 168.85 242.75 128C242.75 87.15 242.65 82.15 241.85 76.5C240.55 67.45 239.65 63.45 237.5 56.95C229 31.35 211.15 18.3 178.5 13.95C174.55 13.4 93.25 12.85 86 13.3ZM171.8 30C208.35 32.95 223.2 47.85 226 84.5C226.65 93.3 226.65 162.7 226 171.5C225.05 184 223.05 192.6 219.25 200.35C211.45 216.3 197.25 223.95 171.8 226C163.35 226.65 92.65 226.65 84.2 226C47.65 223.05 32.8 208.1 30 171.5C29.35 162.7 29.35 93.3 30 84.5C32.75 48.25 47.75 32.95 83.25 30.05C90.75 29.45 164.25 29.4 171.8 30Z" fill="url(#paint0_linear_2108_128)"/>
<path d="M96.25 71.4501C95.05 72.0001 90.5 76.2001 85 81.7001L75.8 91.0001L74 89.2501C71 86.3501 67.9 85.7501 64.2 87.4501C61.35 88.7501 59.85 91.3001 59.9 94.8001C59.9 98.2501 60.75 99.6001 66.4 105.1C72.1 110.7 74.95 111.95 78.85 110.5C80.45 109.9 106.2 84.4501 107.3 82.4001C107.7 81.6501 108 79.9501 108 78.6001C108 72.6001 101.7 68.8001 96.25 71.4501Z" fill="url(#paint1_linear_2108_128)"/>
<path d="M128.1 87.35C124.7 89 123.05 92.9 124.05 96.6C124.7 99.2 127.7 102.2 130 102.7C130.9 102.85 144.6 103 160.45 103H189.3L191.5 101.85C194.85 100.2 196.15 97.95 195.9 94.25C195.7 91.1 194.9 89.55 192.55 87.7C191.3 86.8 190.1 86.75 160.5 86.65C132.9 86.5 129.6 86.6 128.1 87.35Z" fill="url(#paint2_linear_2108_128)"/>
<path d="M97.55 145.5C96.25 145.8 93.45 148.3 85.95 155.8L76.05 165.7L74.05 163.85C70.3 160.5 65.5 160.35 62.2 163.55C60.65 165.05 59.3 168.7 59.75 170.2C59.85 170.5 60.05 171.4 60.25 172.25C60.65 174.05 70.05 183.8 72.35 184.8C74.45 185.7 77.7 185.7 79.7 184.75C81.8 183.75 106.8 158.65 107.45 156.85C107.75 156.05 108 154.35 108 153.05C108 147.85 102.95 144.15 97.55 145.5Z" fill="url(#paint3_linear_2108_128)"/>
<path d="M129 161.55C126.95 162.35 124.5 165.1 123.95 167.15C123 170.75 124.6 174.55 127.95 176.4L129.95 177.5L160.45 177.4C190.5 177.25 190.95 177.25 192.35 176.2C197.3 172.5 197.3 166 192.35 162.3C190.95 161.25 190.5 161.25 160.6 161.15C141.2 161.1 129.8 161.25 129 161.55Z" fill="url(#paint4_linear_2108_128)"/>
<defs>
<linearGradient id="paint0_linear_2108_128" x1="222.375" y1="226.875" x2="44.25" y2="34.3125" gradientUnits="userSpaceOnUse">
<stop stop-color="#4EA8DE"/>
<stop offset="1" stop-color="#5E60CE"/>
</linearGradient>
<linearGradient id="paint1_linear_2108_128" x1="103.734" y1="108.229" x2="73.2397" y2="69.031" gradientUnits="userSpaceOnUse">
<stop stop-color="#4EA8DE"/>
<stop offset="1" stop-color="#5E60CE"/>
</linearGradient>
<linearGradient id="paint2_linear_2108_128" x1="189.529" y1="101.854" x2="184.391" y2="77.4173" gradientUnits="userSpaceOnUse">
<stop stop-color="#4EA8DE"/>
<stop offset="1" stop-color="#5E60CE"/>
</linearGradient>
<linearGradient id="paint3_linear_2108_128" x1="103.713" y1="182.657" x2="73.4581" y2="143.367" gradientUnits="userSpaceOnUse">
<stop stop-color="#4EA8DE"/>
<stop offset="1" stop-color="#5E60CE"/>
</linearGradient>
<linearGradient id="paint4_linear_2108_128" x1="189.643" y1="176.357" x2="184.548" y2="151.983" gradientUnits="userSpaceOnUse">
<stop stop-color="#4EA8DE"/>
<stop offset="1" stop-color="#5E60CE"/>
</linearGradient>
</defs>
</svg>
