<svg width="64" height="64" viewBox="0 0 64 64" fill="none" xmlns="http://www.w3.org/2000/svg">
<path d="M21.5 3.32498C9.625 4.07498 4.1875 9.39998 3.375 21.0625C3.2125 23.3375 3.2125 40.6625 3.375 42.9375C4.0625 52.8375 8.1625 58.2 16.3875 59.9875C19.425 60.6375 19.7625 60.6625 30.5 60.7125C41.05 60.775 43.625 60.7 46.2 60.2625C53.2875 59.0375 57.375 55.775 59.375 49.7625C59.9125 48.1375 60.1375 47.1375 60.4625 44.875C60.6625 43.4625 60.6875 42.2125 60.6875 32C60.6875 21.7875 60.6625 20.5375 60.4625 19.125C60.1375 16.8625 59.9125 15.8625 59.375 14.2375C57.25 7.83748 52.7875 4.57498 44.625 3.48748C43.6375 3.34998 23.3125 3.21248 21.5 3.32498ZM42.95 7.49998C52.0875 8.23748 55.8 11.9625 56.5 21.125C56.6625 23.325 56.6625 40.675 56.5 42.875C56.2625 46 55.7625 48.15 54.8125 50.0875C52.8625 54.075 49.3125 55.9875 42.95 56.5C40.8375 56.6625 23.1625 56.6625 21.05 56.5C11.9125 55.7625 8.2 52.025 7.5 42.875C7.3375 40.675 7.3375 23.325 7.5 21.125C8.1875 12.0625 11.9375 8.23748 20.8125 7.51248C22.6875 7.36248 41.0625 7.34998 42.95 7.49998Z" fill="url(#paint0_linear_2108_114)"/>
<path d="M24.0625 17.8624C23.7625 17.9999 22.625 19.0499 21.25 20.4249L18.95 22.7499L18.5 22.3124C17.75 21.5874 16.975 21.4374 16.05 21.8624C15.3375 22.1874 14.9625 22.8249 14.975 23.6999C14.975 24.5624 15.1875 24.8999 16.6 26.2749C18.025 27.6749 18.7375 27.9874 19.7125 27.6249C20.1125 27.4749 26.55 21.1124 26.825 20.5999C26.925 20.4124 27 19.9874 27 19.6499C27 18.1499 25.425 17.1999 24.0625 17.8624Z" fill="url(#paint1_linear_2108_114)"/>
<path d="M32.025 21.8375C31.175 22.25 30.7625 23.225 31.0125 24.15C31.175 24.8 31.925 25.55 32.5 25.675C32.725 25.7125 36.15 25.75 40.1125 25.75H47.325L47.875 25.4625C48.7125 25.05 49.0375 24.4875 48.975 23.5625C48.925 22.775 48.725 22.3875 48.1375 21.925C47.825 21.7 47.525 21.6875 40.125 21.6625C33.225 21.625 32.4 21.65 32.025 21.8375Z" fill="url(#paint2_linear_2108_114)"/>
<path d="M24.3875 36.375C24.0625 36.45 23.3625 37.075 21.4875 38.95L19.0125 41.425L18.5125 40.9625C17.575 40.125 16.375 40.0875 15.55 40.8875C15.1625 41.2625 14.825 42.175 14.9375 42.55C14.9625 42.625 15.0125 42.85 15.0625 43.0625C15.1625 43.5125 17.5125 45.95 18.0875 46.2C18.6125 46.425 19.425 46.425 19.925 46.1875C20.45 45.9375 26.7 39.6625 26.8625 39.2125C26.9375 39.0125 27 38.5875 27 38.2625C27 36.9625 25.7375 36.0375 24.3875 36.375Z" fill="url(#paint3_linear_2108_114)"/>
<path d="M32.25 40.3875C31.7375 40.5875 31.125 41.275 30.9875 41.7875C30.75 42.6875 31.15 43.6375 31.9875 44.1L32.4875 44.375L40.1125 44.35C47.625 44.3125 47.7375 44.3125 48.0875 44.05C49.325 43.125 49.325 41.5 48.0875 40.575C47.7375 40.3125 47.625 40.3125 40.15 40.2875C35.3 40.275 32.45 40.3125 32.25 40.3875Z" fill="url(#paint4_linear_2108_114)"/>
<defs>
<linearGradient id="paint0_linear_2108_114" x1="55.5937" y1="56.7187" x2="11.0625" y2="8.57809" gradientUnits="userSpaceOnUse">
<stop stop-color="#4EA8DE"/>
<stop offset="1" stop-color="#5E60CE"/>
</linearGradient>
<linearGradient id="paint1_linear_2108_114" x1="25.9335" y1="27.0572" x2="18.3099" y2="17.2576" gradientUnits="userSpaceOnUse">
<stop stop-color="#4EA8DE"/>
<stop offset="1" stop-color="#5E60CE"/>
</linearGradient>
<linearGradient id="paint2_linear_2108_114" x1="47.3823" y1="25.4634" x2="46.0977" y2="19.3543" gradientUnits="userSpaceOnUse">
<stop stop-color="#4EA8DE"/>
<stop offset="1" stop-color="#5E60CE"/>
</linearGradient>
<linearGradient id="paint3_linear_2108_114" x1="25.9283" y1="45.6643" x2="18.3645" y2="35.8418" gradientUnits="userSpaceOnUse">
<stop stop-color="#4EA8DE"/>
<stop offset="1" stop-color="#5E60CE"/>
</linearGradient>
<linearGradient id="paint4_linear_2108_114" x1="47.4107" y1="44.0893" x2="46.1371" y2="37.9957" gradientUnits="userSpaceOnUse">
<stop stop-color="#4EA8DE"/>
<stop offset="1" stop-color="#5E60CE"/>
</linearGradient>
</defs>
</svg>
