<svg width="128" height="128" viewBox="0 0 128 128" fill="none" xmlns="http://www.w3.org/2000/svg">
<path d="M43 6.65001C19.25 8.15001 8.37498 18.8 6.74998 42.125C6.42498 46.675 6.42498 81.325 6.74998 85.875C8.12498 105.675 16.325 116.4 32.775 119.975C38.85 121.275 39.525 121.325 61 121.425C82.1 121.55 87.25 121.4 92.4 120.525C106.575 118.075 114.75 111.55 118.75 99.525C119.825 96.275 120.275 94.275 120.925 89.75C121.325 86.925 121.375 84.425 121.375 64C121.375 43.575 121.325 41.075 120.925 38.25C120.275 33.725 119.825 31.725 118.75 28.475C114.5 15.675 105.575 9.15001 89.25 6.97501C87.275 6.70001 46.625 6.42501 43 6.65001ZM85.9 15C104.175 16.475 111.6 23.925 113 42.25C113.325 46.65 113.325 81.35 113 85.75C112.525 92 111.525 96.3 109.625 100.175C105.725 108.15 98.625 111.975 85.9 113C81.675 113.325 46.325 113.325 42.1 113C23.825 111.525 16.4 104.05 15 85.75C14.675 81.35 14.675 46.65 15 42.25C16.375 24.125 23.875 16.475 41.625 15.025C45.375 14.725 82.125 14.7 85.9 15Z" fill="url(#paint0_linear_2108_121)"/>
<path d="M48.125 35.725C47.525 36 45.25 38.1 42.5 40.85L37.9 45.5L37 44.625C35.5 43.175 33.95 42.875 32.1 43.725C30.675 44.375 29.925 45.65 29.95 47.4C29.95 49.125 30.375 49.8 33.2 52.55C36.05 55.35 37.475 55.975 39.425 55.25C40.225 54.95 53.1 42.225 53.65 41.2C53.85 40.825 54 39.975 54 39.3C54 36.3 50.85 34.4 48.125 35.725Z" fill="url(#paint1_linear_2108_121)"/>
<path d="M64.05 43.675C62.35 44.5 61.525 46.45 62.025 48.3C62.35 49.6 63.85 51.1 65 51.35C65.45 51.425 72.3 51.5 80.225 51.5H94.65L95.75 50.925C97.425 50.1 98.075 48.975 97.95 47.125C97.85 45.55 97.45 44.775 96.275 43.85C95.65 43.4 95.05 43.375 80.25 43.325C66.45 43.25 64.8 43.3 64.05 43.675Z" fill="url(#paint2_linear_2108_121)"/>
<path d="M48.775 72.75C48.125 72.9 46.725 74.15 42.975 77.9L38.025 82.85L37.025 81.925C35.15 80.25 32.75 80.175 31.1 81.775C30.325 82.525 29.65 84.35 29.875 85.1C29.925 85.25 30.025 85.7 30.125 86.125C30.325 87.025 35.025 91.9 36.175 92.4C37.225 92.85 38.85 92.85 39.85 92.375C40.9 91.875 53.4 79.325 53.725 78.425C53.875 78.025 54 77.175 54 76.525C54 73.925 51.475 72.075 48.775 72.75Z" fill="url(#paint3_linear_2108_121)"/>
<path d="M64.5 80.775C63.475 81.175 62.25 82.55 61.975 83.575C61.5 85.375 62.3 87.275 63.975 88.2L64.975 88.75L80.225 88.7C95.25 88.625 95.475 88.625 96.175 88.1C98.65 86.25 98.65 83 96.175 81.15C95.475 80.625 95.25 80.625 80.3 80.575C70.6 80.55 64.9 80.625 64.5 80.775Z" fill="url(#paint4_linear_2108_121)"/>
<defs>
<linearGradient id="paint0_linear_2108_121" x1="111.187" y1="113.438" x2="22.125" y2="17.1563" gradientUnits="userSpaceOnUse">
<stop stop-color="#4EA8DE"/>
<stop offset="1" stop-color="#5E60CE"/>
</linearGradient>
<linearGradient id="paint1_linear_2108_121" x1="51.867" y1="54.1145" x2="36.6199" y2="34.5155" gradientUnits="userSpaceOnUse">
<stop stop-color="#4EA8DE"/>
<stop offset="1" stop-color="#5E60CE"/>
</linearGradient>
<linearGradient id="paint2_linear_2108_121" x1="94.7647" y1="50.9269" x2="92.1955" y2="38.7086" gradientUnits="userSpaceOnUse">
<stop stop-color="#4EA8DE"/>
<stop offset="1" stop-color="#5E60CE"/>
</linearGradient>
<linearGradient id="paint3_linear_2108_121" x1="51.8565" y1="91.3287" x2="36.729" y2="71.6837" gradientUnits="userSpaceOnUse">
<stop stop-color="#4EA8DE"/>
<stop offset="1" stop-color="#5E60CE"/>
</linearGradient>
<linearGradient id="paint4_linear_2108_121" x1="94.8214" y1="88.1786" x2="92.2741" y2="75.9914" gradientUnits="userSpaceOnUse">
<stop stop-color="#4EA8DE"/>
<stop offset="1" stop-color="#5E60CE"/>
</linearGradient>
</defs>
</svg>
